<svg xmlns="http://www.w3.org/2000/svg" version="1.1" xmlns:xlink="http://www.w3.org/1999/xlink" xmlns:svgjs="http://svgjs.com/svgjs" width="1440" height="560" preserveAspectRatio="none" viewBox="0 0 1440 560"><g mask="url(&quot;#SvgjsMask1013&quot;)" fill="none"><rect width="1440" height="560" x="0" y="0" fill="rgba(188, 72, 255, 1)"></rect><path d="M0,658.378C121.548,658.384,234.855,582.194,315.99,491.69C388.105,411.249,384.977,293.859,418.775,191.248C448.166,102.018,491.434,21.249,501.705,-72.134C514.704,-190.315,546.031,-318.535,486.142,-421.244C423.871,-528.037,305.645,-615.486,182.114,-620.223C60.22,-624.897,-13.239,-478.044,-130.633,-444.896C-250.079,-411.168,-405.253,-514.637,-495.094,-429.001C-582.564,-345.625,-514.663,-195.392,-519.078,-74.632C-522.955,31.399,-555.272,137.353,-519.451,237.225C-482.03,341.559,-402.067,421.851,-315.968,491.657C-221.554,568.205,-121.547,658.372,0,658.378" fill="#9900f2"></path><path d="M1440 999.629C1534.537 1008.4010000000001 1632.051 1032.259 1719.007 994.144 1811.993 953.385 1879.334 871.6030000000001 1931.199 784.323 1987.391 689.761 2036.518 585.179 2027.156 475.58 2017.567 363.323 1955.694 262.166 1879.508 179.164 1804.723 97.68700000000001 1708.307 38.500999999999976 1601.087 11.388000000000034 1496.331-15.102999999999952 1386.29-6.126999999999953 1283.956 28.562999999999988 1184.388 62.315 1101.311 127.47199999999998 1030.204 204.91000000000003 957.433 284.16 880.272 371.002 871.08 478.202 862.029 583.76 921.768 681.961 981.8140000000001 769.2470000000001 1034.739 846.182 1108.967 903.332 1192.395 945.281 1269.45 984.025 1354.122 991.6610000000001 1440 999.629" fill="#db9dff"></path></g><defs><mask id="SvgjsMask1013"><rect width="1440" height="560" fill="#ffffff"></rect></mask></defs></svg>